<?xml version="1.0" encoding="UTF-8"?>
<svg id="Layer_2" data-name="Layer 2" xmlns="http://www.w3.org/2000/svg" viewBox="0 0 258.16 251.7">
  <defs>
    <style>
      .cls-1 {
        fill: #99f;
      }

      .cls-2 {
        fill: #00005b;
      }
    </style>
  </defs>
  <g id="Layer_1-2" data-name="Layer 1">
    <g id="Layer_2_1_-8" data-name="Layer 2 1 -8">
      <g id="Surfaces">
        <g id="Video_Audio_Surface" data-name="Video Audio Surface">
          <g id="Outline_no_shadow-3" data-name="Outline no shadow-3">
            <path id="path2194" class="cls-2" d="M45.72,0H212.44c25.28,0,45.72,20.44,45.72,45.72V205.99c0,25.28-20.44,45.72-45.72,45.72H45.72c-25.28,0-45.72-20.44-45.72-45.72V45.72C0,20.44,20.44,0,45.72,0Z"/>
          </g>
        </g>
      </g>
      <g id="Outlined_Mnemonics_Logos" data-name="Outlined Mnemonics Logos">
        <g id="Ae">
          <path id="path2199" class="cls-1" d="M103.69,150.59H63.68l-8.17,25.38c-.21,.97-1.07,1.61-2.04,1.51h-20.22c-1.18,0-1.51-.65-1.18-1.94l34.64-99.28c.32-1.08,.65-2.04,1.08-3.33,.43-2.26,.65-4.63,.65-6.99-.11-.54,.32-1.07,.86-1.18h27.86c.75,0,1.29,.32,1.4,.86l39.26,110.26c.32,1.18,0,1.72-1.08,1.72h-22.48c-.75,.11-1.51-.43-1.72-1.18l-8.82-25.81Zm-33.77-21.41h27.32c-.65-2.26-1.51-4.95-2.47-7.74-.97-2.9-1.94-6.02-2.9-9.25-1.08-3.34-2.04-6.56-3.12-9.9-1.07-3.33-2.04-6.45-2.9-9.57-.86-3.01-1.61-5.81-2.37-8.39h-.21c-.97,4.63-2.15,9.25-3.66,13.88-1.61,5.16-3.23,10.54-4.95,15.92-1.4,5.49-3.12,10.54-4.73,15.06h0Z"/>
          <path id="path2201" class="cls-1" d="M201.58,140.7h-34.1c.43,3.33,1.51,6.67,3.33,9.57,1.94,2.9,4.63,5.16,7.85,6.45,4.3,1.83,9.03,2.8,13.77,2.69,3.77-.11,7.53-.43,11.19-1.18,3.33-.43,6.56-1.29,9.57-2.47,.54-.43,.86-.22,.86,.86v16.46c0,.43-.11,.86-.21,1.29-.21,.32-.43,.54-.75,.75-3.44,1.51-6.99,2.58-10.76,3.23-5.06,.97-10.11,1.4-15.27,1.29-8.18,0-15.06-1.29-20.65-3.76-5.27-2.26-9.9-5.81-13.55-10.22-3.44-4.19-5.92-8.93-7.42-14.09-1.51-5.06-2.26-10.33-2.26-15.71,0-5.81,.86-11.51,2.69-17.1,1.72-5.38,4.41-10.33,8.07-14.74,3.55-4.3,7.96-7.74,13.01-10.22,5.06-2.47,11.08-3.34,17.96-3.34,5.7-.11,11.4,.97,16.67,3.34,4.41,1.94,8.28,4.84,11.29,8.6,2.8,3.66,5.06,7.74,6.45,12.26,1.4,4.3,2.04,8.71,2.04,13.12,0,2.58-.11,4.84-.21,6.88-.21,2.04-.32,3.55-.43,4.52-.11,.75-.75,1.4-1.51,1.4-.65,0-1.83,.11-3.55,.21-1.72,.22-3.76,.32-6.24,.32s-5.06-.43-7.85-.43h0Zm-34.1-15.71h22.7c2.8,0,4.84,0,6.13-.11,.86-.11,1.72-.32,2.47-.86v-1.07c0-1.4-.22-2.69-.65-3.98-1.94-6.02-7.64-10.11-13.98-9.9-5.92-.32-11.51,2.8-14.31,8.17-1.29,2.47-2.04,5.06-2.37,7.74Z"/>
        </g>
      </g>
    </g>
  </g>
</svg>