<?xml version="1.0" encoding="utf-8"?>
<!-- Generator: Adobe Illustrator 24.3.0, SVG Export Plug-In . SVG Version: 6.00 Build 0)  -->
<svg version="1.1" id="Layer_1" xmlns="http://www.w3.org/2000/svg" xmlns:xlink="http://www.w3.org/1999/xlink" x="0px" y="0px"
	 viewBox="0 0 1667 2500" style="enable-background:new 0 0 1667 2500;" xml:space="preserve">
<style type="text/css">
	.st0{fill:#0ACF83;}
	.st1{fill:#A259FF;}
	.st2{fill:#F24E1E;}
	.st3{fill:#FF7262;}
	.st4{fill:#1ABCFE;}
</style>
<desc>Created using Figma</desc>
<path id="path0_fill" class="st0" d="M564.7,2056.5c148.4,0,268.8-120.4,268.8-268.8v-268.8H564.7c-148.4,0-268.8,120.4-268.8,268.8
	S416.3,2056.5,564.7,2056.5z"/>
<path id="path1_fill" class="st1" d="M295.8,1250c0-148.4,120.4-268.8,268.8-268.8h268.8v537.7H564.7
	C416.3,1518.8,295.8,1398.4,295.8,1250z"/>
<path id="path1_fill_1_" class="st2" d="M295.8,712.3c0-148.4,120.4-268.8,268.8-268.8h268.8v537.7H564.7
	C416.3,981.2,295.8,860.7,295.8,712.3z"/>
<path id="path2_fill" class="st3" d="M833.5,443.5h268.8c148.4,0,268.8,120.4,268.8,268.8s-120.4,268.8-268.8,268.8H833.5V443.5z"/>
<path id="path3_fill" class="st4" d="M1371.2,1250c0,148.4-120.4,268.8-268.8,268.8S833.5,1398.4,833.5,1250
	s120.4-268.8,268.8-268.8S1371.2,1101.6,1371.2,1250z"/>
</svg>
