<?xml version="1.0" encoding="utf-8"?>
<!-- Generator: Adobe Illustrator 24.3.0, SVG Export Plug-In . SVG Version: 6.00 Build 0)  -->
<svg version="1.1" id="Layer_1" xmlns="http://www.w3.org/2000/svg" xmlns:xlink="http://www.w3.org/1999/xlink" x="0px" y="0px"
	 viewBox="0 0 2000 2000" style="enable-background:new 0 0 2000 2000;" xml:space="preserve">
<style type="text/css">
	.st0{display:none;}
	.st1{fill:#E34E26;}
	.st2{fill:#EF662A;}
	.st3{fill:#FFFFFF;}
	.st4{fill:#EBEBEB;}
</style>
<g id="Logo_artwork" class="st0">
</g>
<g id="Guides_to_delete">
	<g>
		<polygon class="st1" points="352.7,1718.4 208.6,102 1791.4,102 1647.1,1718.5 999.6,1898 		"/>
		<polygon class="st2" points="1000,234.1 1000,1760.7 1523.6,1615.6 1646.9,234.1 		"/>
		<polygon class="st3" points="503.5,432.4 556.9,1031.9 1244,1031.9 1221,1289 999.7,1348.9 778.9,1289.1 764.2,1124 565.2,1124 
			593.6,1442.3 999.7,1555.1 1406.3,1442.3 1460.8,833.7 738.2,833.7 720.1,630.6 1478.2,630.6 1478.8,630.6 1496.5,432.4 		"/>
		<g>
			<polygon class="st4" points="1000,432.4 503.5,432.4 556.9,1031.9 1000,1031.9 1000,833.7 738.2,833.7 720.1,630.6 1000,630.6 
							"/>
			<polygon class="st4" points="1000,1348.8 999.7,1348.9 778.9,1289.1 764.2,1124 565.2,1124 593.6,1442.3 999.7,1555.1 1000,1555 
							"/>
		</g>
	</g>
</g>
<g id="Guides_to_delete_1_">
	<g>
		<polygon class="st1" points="289.7,1787.3 131.6,10 1868.4,10 1710.1,1787.5 999.6,1984.8 		"/>
		<polygon class="st2" points="1000,155.3 1000,1833.9 1574.5,1674.3 1709.9,155.3 		"/>
		<polygon class="st3" points="455.1,373.3 513.8,1032.5 1267.8,1032.5 1242.5,1315.2 999.7,1381 757.4,1315.3 741.2,1133.8 
			522.8,1133.8 554.1,1483.8 999.7,1607.8 1445.8,1483.8 1505.7,814.5 712.8,814.5 692.8,591.3 1524.7,591.3 1525.4,591.3 
			1544.9,373.3 		"/>
		<g>
			<polygon class="st4" points="1000,373.3 455.1,373.3 513.8,1032.5 1000,1032.5 1000,814.5 712.8,814.5 692.8,591.3 1000,591.3 
							"/>
			<polygon class="st4" points="1000,1380.9 999.7,1381 757.4,1315.3 741.2,1133.8 522.8,1133.8 554.1,1483.8 999.7,1607.8 
				1000,1607.7 			"/>
		</g>
	</g>
</g>
</svg>
