<?xml version="1.0" encoding="utf-8"?>
<!-- Generator: Adobe Illustrator 24.3.0, SVG Export Plug-In . SVG Version: 6.00 Build 0)  -->
<svg version="1.1" id="Layer_1" xmlns="http://www.w3.org/2000/svg" xmlns:xlink="http://www.w3.org/1999/xlink" x="0px" y="0px"
	 viewBox="0 0 630 630" style="enable-background:new 0 0 630 630;" xml:space="preserve">
<style type="text/css">
	.st0{fill:#F7DF1E;}
</style>
<rect x="67.7" y="67.7" class="st0" width="494.7" height="494.7"/>
<path d="M400,454.1c10,16.3,22.9,28.2,45.9,28.2c19.3,0,31.6-9.6,31.6-22.9c0-15.9-12.6-21.6-33.8-30.9l-11.6-5
	c-33.5-14.3-55.8-32.2-55.8-70c0-34.9,26.6-61.4,68.1-61.4c29.6,0,50.8,10.3,66.1,37.2l-36.2,23.2c-8-14.3-16.6-19.9-29.9-19.9
	c-13.6,0-22.2,8.6-22.2,19.9c0,13.9,8.6,19.6,28.6,28.2l11.6,5c39.5,16.9,61.8,34.2,61.8,73c0,41.9-32.9,64.8-77,64.8
	c-43.2,0-71.1-20.6-84.7-47.5L400,454.1z M235.7,458.2c7.3,13,13.9,23.9,29.9,23.9c15.3,0,24.9-6,24.9-29.2V294.8h46.5v158.7
	c0,48.1-28.2,70-69.4,70c-37.2,0-58.8-19.3-69.7-42.5L235.7,458.2z"/>
</svg>
