<?xml version="1.0" encoding="utf-8"?>
<!-- Generator: Adobe Illustrator 24.3.0, SVG Export Plug-In . SVG Version: 6.00 Build 0)  -->
<svg version="1.1" id="Layer_1" xmlns="http://www.w3.org/2000/svg" xmlns:xlink="http://www.w3.org/1999/xlink" x="0px" y="0px"
	 viewBox="0 0 256 289" style="enable-background:new 0 0 256 289;" xml:space="preserve">
<style type="text/css">
	.st0{fill:#539E43;}
</style>
<g>
	<path class="st0" d="M128,269.2c-3.4,0-6.7-0.9-9.6-2.5l-30.5-18.1c-4.6-2.5-2.3-3.4-0.9-3.9c6.2-2.1,7.3-2.5,13.8-6.2
		c0.7-0.5,1.6-0.2,2.3,0.2l23.4,14c0.9,0.5,2.1,0.5,2.8,0l91.6-53.1c0.9-0.5,1.4-1.4,1.4-2.5V91.2c0-1.1-0.5-2.1-1.4-2.5l-91.6-52.8
		c-0.9-0.5-2.1-0.5-2.8,0L34.7,88.7c-0.9,0.5-1.4,1.6-1.4,2.5v105.9c0,0.9,0.5,2.1,1.4,2.5l25,14.5c13.6,6.9,22-1.1,22-9.2V100.4
		c0-1.4,1.1-2.8,2.8-2.8h11.7c1.4,0,2.8,1.1,2.8,2.8v104.5c0,18.1-9.9,28.7-27.1,28.7c-5.3,0-9.4,0-21.1-5.7l-24.1-13.8
		c-6-3.4-9.6-9.9-9.6-16.8V91.5c0-6.9,3.7-13.3,9.6-16.8l91.6-53.1c5.7-3.2,13.6-3.2,19.3,0l91.6,53.1c6,3.4,9.6,9.9,9.6,16.8v105.9
		c0,6.9-3.7,13.3-9.6,16.8l-91.6,53.1C134.7,268.5,131.2,269.2,128,269.2L128,269.2z M156.3,196.4c-40.2,0-48.5-18.4-48.5-34
		c0-1.4,1.1-2.8,2.8-2.8h11.9c1.4,0,2.5,0.9,2.5,2.3c1.8,12.2,7.1,18.1,31.5,18.1c19.3,0,27.6-4.4,27.6-14.7c0-6-2.3-10.3-32.4-13.3
		c-25-2.5-40.7-8-40.7-28c0-18.6,15.6-29.6,41.8-29.6c29.4,0,43.9,10.1,45.7,32.2c0,0.7-0.2,1.4-0.7,2.1c-0.5,0.5-1.1,0.9-1.8,0.9
		H184c-1.1,0-2.3-0.9-2.5-2.1c-2.8-12.6-9.9-16.8-28.7-16.8c-21.1,0-23.7,7.3-23.7,12.9c0,6.7,3,8.7,31.5,12.4
		c28.3,3.7,41.6,9,41.6,28.7C202,184.9,185.4,196.4,156.3,196.4L156.3,196.4z"/>
</g>
</svg>
