<?xml version="1.0" encoding="utf-8"?>
<!-- Generator: Adobe Illustrator 24.3.0, SVG Export Plug-In . SVG Version: 6.00 Build 0)  -->
<svg version="1.1" id="Layer_1" xmlns="http://www.w3.org/2000/svg" xmlns:xlink="http://www.w3.org/1999/xlink" x="0px" y="0px"
	 viewBox="0 0 7008.2 3664" style="enable-background:new 0 0 7008.2 3664;" xml:space="preserve">
<style type="text/css">
	.st0{fill-rule:evenodd;clip-rule:evenodd;fill:#8993BE;}
	.st1{fill-rule:evenodd;clip-rule:evenodd;fill:#232531;}
</style>
<g>
	<ellipse class="st0" cx="3517.6" cy="1847" rx="3490.6" ry="1817"/>
	<path class="st1" d="M1007.2,2922.9l382.5-1936.6h884.6c382.5,23.9,573.8,215.2,573.8,549.9c0,573.8-454.2,908.5-860.7,884.6
		h-430.3l-95.6,502.1H1007.2z M1652.7,2062.2l119.6-717.3h310.8c167.4,0,286.9,71.7,286.9,215.2
		c-23.9,406.5-215.2,478.2-430.3,502.1L1652.7,2062.2L1652.7,2062.2z M2759.3,2420.8l382.5-1936.5H3596l-95.6,502h430.3
		c382.5,23.9,526,215.2,478.2,454.3l-167.4,980.2h-478.2l167.4-884.6c23.9-119.6,23.9-191.3-143.4-191.3h-358.6l-215.2,1075.9
		H2759.3z M4210.9,2922.9l382.5-1936.6H5478c382.5,23.9,573.8,215.2,573.8,549.9c0,573.8-454.3,908.5-860.7,884.6h-430.4
		l-95.6,502.1H4210.9z M4856.4,2062.2l119.6-717.3h310.8c167.4,0,286.9,71.7,286.9,215.2c-23.9,406.5-215.2,478.2-430.3,502.1
		H4856.4L4856.4,2062.2z"/>
</g>
</svg>
