<?xml version="1.0" encoding="utf-8"?>
<!-- Generator: Adobe Illustrator 24.3.0, SVG Export Plug-In . SVG Version: 6.00 Build 0)  -->
<svg version="1.1" id="Layer_1" xmlns="http://www.w3.org/2000/svg" xmlns:xlink="http://www.w3.org/1999/xlink" x="0px" y="0px"
	 viewBox="0 0 800 800" style="enable-background:new 0 0 800 800;" xml:space="preserve">
<style type="text/css">
	.st0{fill:url(#SVGID_1_);}
	.st1{fill:url(#SVGID_2_);}
</style>
<linearGradient id="SVGID_1_" gradientUnits="userSpaceOnUse" x1="-76.9838" y1="746.306" x2="-51.8472" y2="721.0853" gradientTransform="matrix(12.5 0 0 -12.5 1104 9465.7676)">
	<stop  offset="0" style="stop-color:#387EB8"/>
	<stop  offset="1" style="stop-color:#366994"/>
</linearGradient>
<path class="st0" d="M397.8,77.1c-158.6,0-148.7,71.2-148.7,71.2l0.2,73.8h151.3v22.1H189.1c0,0-101.5-11.9-101.5,153.8
	c0,165.7,88.6,159.9,88.6,159.9h52.9v-76.9c0,0-2.9-91.7,87.2-91.7h150.1c0,0,84.3,1.4,84.3-84.4V163
	C550.7,163,563.5,77.1,397.8,77.1z M314.3,126.7c15.1,0,27.2,12.6,27.2,28.2s-12.2,28.2-27.2,28.2c-15,0-27.2-12.6-27.2-28.1
	c0,0,0-0.1,0-0.1C287.1,139.3,299.2,126.7,314.3,126.7z"/>
<linearGradient id="SVGID_2_" gradientUnits="userSpaceOnUse" x1="-61.494" y1="729.8176" x2="-34.512" y2="703.9677" gradientTransform="matrix(12.5 0 0 -12.5 1104 9465.7676)">
	<stop  offset="0" style="stop-color:#FFE052"/>
	<stop  offset="1" style="stop-color:#FFC331"/>
</linearGradient>
<path class="st1" d="M402.2,720.8c158.6,0,148.7-71.2,148.7-71.2l-0.2-73.8H399.4v-22.1h211.5c0,0,101.5,11.9,101.5-153.8
	s-88.6-159.9-88.6-159.9h-52.9v76.9c0,0,2.9,91.7-87.2,91.7H333.7c0,0-84.3-1.4-84.3,84.4v141.9
	C249.3,634.9,236.5,720.8,402.2,720.8z M485.7,671.2c-15,0-27.2-12.6-27.2-28.1c0,0,0-0.1,0-0.1c0-15.6,12.2-28.2,27.2-28.2
	c15.1,0,27.2,12.6,27.2,28.2C512.9,658.6,500.8,671.2,485.7,671.2z"/>
</svg>
