<svg width="24" height="22" viewBox="0 0 24 22" fill="none" xmlns="http://www.w3.org/2000/svg">
<path d="M23.693 9.70565L18.963 1.52125C18.5536 0.810651 17.5464 0.227051 16.7228 0.227051H7.2725C6.4535 0.227051 5.4417 0.810651 5.0323 1.52125L0.307003 9.70565C-0.102497 10.4163 -0.102497 11.5787 0.307003 12.2894L5.0322 20.4784C5.4416 21.1891 6.4488 21.7727 7.2724 21.7727H16.7274C17.5464 21.7727 18.5534 21.1891 18.9676 20.4785L23.6928 12.2895C24.1023 11.5788 24.1025 10.4163 23.693 9.70565ZM10.9763 4.75455C10.9763 4.21805 11.414 3.78035 11.9505 3.78035C12.487 3.78035 12.9247 4.21805 12.9247 4.75455V10.5763C12.9247 11.1129 12.487 11.5505 11.9505 11.5505C11.414 11.5505 10.9763 11.1129 10.9763 10.5763V4.75455ZM11.9505 17.184C8.3078 17.184 5.3428 14.219 5.3428 10.5763C5.3475 8.48665 6.3358 6.52415 8.0113 5.27225C8.10266 5.20399 8.20661 5.15446 8.31717 5.1265C8.42774 5.09853 8.54274 5.09269 8.65556 5.10931C8.76839 5.12592 8.87682 5.16466 8.97463 5.22331C9.07244 5.28196 9.1577 5.35935 9.2255 5.45105C9.29378 5.54242 9.34332 5.64637 9.37129 5.75694C9.39927 5.86752 9.40511 5.98253 9.3885 6.09536C9.37188 6.2082 9.33313 6.31665 9.27448 6.41446C9.21582 6.51228 9.13841 6.59754 9.0467 6.66535C6.8865 8.27015 6.4347 11.3246 8.0395 13.4848C9.6444 15.6451 12.6988 16.0968 14.859 14.492C16.0968 13.5743 16.8263 12.12 16.8263 10.5763C16.8243 9.81245 16.6436 9.05972 16.2987 8.3782C15.9539 7.69669 15.4544 7.10528 14.8402 6.65125C14.4542 6.36885 14.3742 5.82285 14.6566 5.43695C14.939 5.05095 15.4849 4.97095 15.8709 5.25345C17.5604 6.50055 18.5535 8.47725 18.5582 10.5763C18.5582 14.2236 15.5932 17.184 11.9505 17.184Z" fill="#68BD45"/>
</svg>
