<?xml version="1.0" encoding="UTF-8"?>
<svg id="svg2" xmlns="http://www.w3.org/2000/svg" viewBox="0 0 600 600">
  <defs>
    <style>
      .cls-1 {
        fill: #007a96;
      }
    </style>
  </defs>
  <path class="cls-1" d="M51.22,299.99c0,98.48,57.23,183.58,140.21,223.91L72.76,198.74c-13.8,30.94-21.54,65.18-21.54,101.25Z"/>
  <path class="cls-1" d="M423.01,160.49c-.18-23.9,19.53-46.35,45-43.96C364.44,13.25,166.26,38.94,92.14,163.36c22.27,1.46,81.17-2.6,82.32-2.87,13.41-.79,14.99,18.91,1.6,20.49,0,0-13.48,1.59-28.48,2.37l90.6,269.48,54.45-163.29-38.77-106.19c-13.4-.79-26.09-2.37-26.09-2.37-13.41-.79-11.83-21.28,1.57-20.49,0,0,41.08,3.16,65.53,3.16,26.02,0,66.3-3.16,66.3-3.16,13.42-.79,15,18.91,1.6,20.49,0,0-13.5,1.58-28.47,2.37l89.91,267.44c10.68-42.14,43.21-127.15,43.76-163.35,2.15-56.44-41.52-80.37-44.95-126.95Z"/>
  <path class="cls-1" d="M229.73,538.65c48.29,14.75,105.73,13.16,152.89-3.96-2.92-3.82-76.2-208.76-78.25-212.93l-74.64,216.89Z"/>
  <path class="cls-1" d="M518.3,180.63c14.93,73.87-73.73,260.38-93.23,334.41,112.05-60.08,159.4-221.92,93.23-334.41Z"/>
  <path class="cls-1" d="M300,10c-381.14,6.84-381.06,573.24,.01,580.01,381.12-6.84,381.08-573.23-.01-580.01Zm0,566.71c-363.63-6.53-363.61-546.94,.01-553.41,363.64,6.52,363.55,546.94-.01,553.41Z"/>
</svg>