<?xml version="1.0" encoding="utf-8"?>
<!-- Generator: Adobe Illustrator 24.3.0, SVG Export Plug-In . SVG Version: 6.00 Build 0)  -->
<svg version="1.1" id="Layer_1" xmlns="http://www.w3.org/2000/svg" xmlns:xlink="http://www.w3.org/1999/xlink" x="0px" y="0px"
	 viewBox="0 0 666 652.9" style="enable-background:new 0 0 666 652.9;" xml:space="preserve">
<style type="text/css">
	.st0{fill:#470137;}
	.st1{fill:#FF61F6;}
</style>
<g transform="matrix(1.000000125 0 0 1.000000125 159.9999625 83.00005)">
	<path class="st0" d="M-39.5-77.3h422.6C447.2-77.3,499-25.5,499,38.5v406.2c0,64.1-51.8,115.9-115.9,115.9H-39.5
		c-64.1,0-115.9-51.8-115.9-115.9V38.5C-155.3-25.5-103.5-77.3-39.5-77.3z"/>
	<g>
		<path class="st1" d="M188.7,90.3l-81.8,135l87.2,143.1c0.5,1.1,0.8,2.2,0.5,3.3c-0.3,1.1-1.4,0.3-3,0.5h-62.4
			c-4.4,0-7.4-0.3-9.3-3c-5.7-11.5-11.7-22.6-17.4-34.1c-5.7-11.2-12-22.6-18.5-34.4S71,277.4,64.4,265.4h-0.5
			c-5.7,11.7-12,23.4-18.3,35.2S33.1,324,27.1,335.4c-6.3,11.5-12.5,23.2-18.8,34.4c-1.1,2.7-3.3,3-6.3,3h-60
			c-1.1,0-1.9,0.5-1.9-0.8c-0.3-1.1,0-2.2,0.5-3l84.8-139L-57.2,90.1c-0.8-1.1-1.1-2.2-0.5-2.7c0.5-0.8,1.6-1.1,2.7-1.1H6.9
			c1.4,0,2.7,0.3,3.8,0.5c1.1,0.5,1.9,1.4,2.7,2.5c5.2,11.7,11.2,23.4,17.4,35.2c6.5,11.7,12.8,23.2,19.6,34.6
			c6.5,11.5,12.5,22.9,18.3,34.6h0.5c5.7-12,11.7-23.7,17.7-35.2s12.3-22.9,18.5-34.4c6.3-11.5,12.3-23.2,18.3-34.4
			c0.3-1.1,0.8-2.2,1.6-2.7c1.1-0.5,2.2-0.8,3.5-0.5h57.5c1.4-0.3,2.7,0.5,3,1.9C189.8,88.7,189.3,89.8,188.7,90.3L188.7,90.3z"/>
		<path class="st1" d="M314.7,378c-20.2,0.3-40.3-3.8-58.6-12.3c-17.2-7.9-31.4-21-41.2-37.1c-10.1-16.6-15-37.4-15-62.2
			c-0.3-20.2,4.9-40.1,15-57.5c10.4-17.7,25.4-32.4,43.3-42.3c19.1-10.6,42-15.8,69-15.8c1.4,0,3.3,0,5.7,0.3
			c2.5,0.3,5.2,0.3,8.5,0.5V65.5c0-1.9,0.8-3,2.7-3h55.3c1.4-0.3,2.5,0.8,2.7,1.9v260.1c0,4.9,0.3,10.4,0.5,16.4
			c0.5,5.7,0.8,11.2,1.1,15.8c0,1.9-0.8,3.5-2.7,4.4c-14.2,6-29.2,10.4-44.4,13.1C342.8,376.6,328.9,378,314.7,378z M341.4,323.4
			v-120c-2.5-0.5-4.9-1.1-7.4-1.4c-3-0.3-6-0.5-9-0.5c-10.6,0-21.3,2.2-30.8,7.1c-9.3,4.6-17.2,11.5-23.2,20.2c-6,8.7-9,20.4-9,34.6
			c-0.3,9.5,1.4,19.1,4.6,28.1c2.7,7.4,6.8,13.9,12.3,19.4c5.2,4.9,11.5,8.7,18.5,10.9c7.4,2.5,15,3.5,22.6,3.5
			c4.1,0,7.9-0.3,11.5-0.5C335.1,325.1,338.1,324.5,341.4,323.4L341.4,323.4z"/>
	</g>
</g>
</svg>
